- 
http://www.Speed.Cd 
       
http://www.Speed.Cd      fast  and The Hottest Private Tracker on the net

(((--Submit for invite!!--)))

Please Seed back to make the speed Faster!!!

------------------nfo--------------------------
-  
[pre]ooooo ooo        ooooo       .o.         .oooooo.     o8o  ooooo      ooo oooooooooooo 
      888' `88.       .888'      .888.       d8P'  `Y8b    `"'  `888b.     `8' `888'     `8 
      888   888b     d'888      .8"888.     888           oooo   8 `88b.    8   888         
      888   8 Y88. .P  888     .8' `888.    888           `888   8   `88b.  8   888oooo8    
      888   8  `888'   888    .88ooo8888.   888     ooooo  888   8     `88b.8   888    "    
      888   8    Y     888   .8'     `888.  `88.    .88'   888   8       `888   888       o 
     o888o o8o        o888o o88o     o8888o  `Y8bood8P'   o888o o8o        `8  o888ooooood8  
                                                



                  Another Fine Release Brought to you from - IMAGiNE                   
                                                 

******************************************************************************************
        Star Wars Episode V The Empire Strikes Back 1980 BRRiP XViD AC3 - IMAGiNE                 
******************************************************************************************

Ripper ...........: IMAGiNE              IMDB Rating.......: 8.8/10                             
Video Codec.......: XViD                 Release Date......: 31/08/11
Audio Codec.......: AC3                  Theatre Date......: 21/05/80
Audio Bitrate.....: 448                  Runtime...........: 2h 7mn
Subtitles.........: NIL                  Language..........: ENGLISH
Resolution........: 720 x 304            IMDb URL..........: http://www.imdb.com/title/tt0080684/


[color=yellow]DETAILS:[/color]

Video
ID                               : 0
Format                           : MPEG-4 Visual
Format profile                   : Advanced Simple@L5
Format settings, BVOP            : 2
Format settings, QPel            : No
Format settings, GMC             : No warppoints
Format settings, Matrix          : Default (MPEG)
Muxing mode                      : Packed bitstream
Codec ID                         : XVID
Codec ID/Hint                    : XviD
Duration                         : 2h 7mn
Bit rate                         : 1 839 Kbps
Width                            : 720 pixels
Height                           : 304 pixels
Display aspect ratio             : 2.35:1
Frame rate                       : 23.976 fps
Color space                      : YUV
Chroma subsampling               : 4:2:0
Bit depth                        : 8 bits
Scan type                        : Progressive
Compression mode                 : Lossy
Bits/(Pixel*Frame)               : 0.350
Stream size                      : 1.64 GiB (80%)
Writing library                  : XviD 64

Audio
ID                               : 1
Format                           : AC-3
Format/Info                      : Audio Coding 3
Mode extension                   : CM (complete main)
Codec ID                         : 2000
Duration                         : 2h 7mn
Bit rate mode                    : Constant
Bit rate                         : 448 Kbps
Channel(s)                       : 6 channels
Channel positions                : Front: L C R, Side: L R, LFE
Sampling rate                    : 48.0 KHz
Bit depth                        : 16 bits
Compression mode                 : Lossy
Stream size                      : 408 MiB (19%)
Alignment                        : Aligned on interleaves
Interleave, duration             : 42 ms (1.00 video frame)
Interleave, preload duration     : 512 ms






[color=yellow]SOURCES:[/color]

VIDEO: ............. Star.Wars.Episode.5.The.Empire.Strikes.Back.1980.BluRay.1080p.DTSES6.1.2Audio.x264-CHD
AUDIO: ............. Star.Wars.Episode.5.The.Empire.Strikes.Back.1980.BluRay.1080p.DTSES6.1.2Audio.x264-CHD  Thanks

[color=yellow]NOTES:[/color]
Ok so here we had a go at Star Wars :P
We made a script to crop, 
run a heavy denoiser, resize, sharpen,
made a slightest rgb change and so on....
Audio was converted from 
DTS to AC3 and muxed to our encode
Enjoy!


[color=yellow]SCREENS:[/color]

[IMG]http://i.imgur.com/a8Hqr.jpg[/IMG]
[IMG]http://i.imgur.com/nee0s.jpg[/IMG]
[IMG]http://i.imgur.com/PAonW.jpg[/IMG]
[IMG]http://i.imgur.com/I4v7j.jpg[/IMG]
[IMG]http://i.imgur.com/yoAwt.jpg[/IMG]
[IMG]http://i.imgur.com/zeeBp.jpg[/IMG]
[IMG]http://i.imgur.com/WSyAn.jpg[/IMG]

[color=yellow]GREETS:[/color]

FLAWL3SS,KINOPARK,Rx,ELEKTRI4KA,ADDiCTED,Autotron,CiNEDUB,CRYS
And to all the other p2p grps past and present 

[COLOR=RED]Looking for these,syncers,cammers,audio,silver supplier.....Have anything to offer????......
Contact us imaginegroup@hushmail.com[/COLOR][/pre]